<svg xmlns="http://www.w3.org/2000/svg" id="Layer_1" height="512" viewBox="0 0 512 512" width="512"><g id="XMLID_1_"><g id="XMLID_3151_"><path id="XMLID_1133_" d="m215 507h82c110.5 0 200-112.4 200-251s-89.5-251-200-251h-82" fill="#ffb234"></path><path id="XMLID_1132_" d="m394.8 475c-28.9 20.4-62.3 32-97.8 32h-82v-32z" fill="#ef8039"></path><path id="XMLID_1131_" d="m497 256c0-138.6-89.5-251-200-251h-82v251z" fill="#ffdca4"></path><path id="XMLID_1130_" d="m481.8 352c-8.6 26.2-20.7 50.2-35.5 71h-231.3v-71z" fill="#ffc96f"></path><path id="XMLID_1129_" d="m497 256h-282v-96h266.8c9.8 29.6 15.2 62 15.2 96z" fill="#ffc96f"></path><path id="XMLID_1128_" d="m446.3 89h-231.3v-52h179.8c19.4 13.7 36.8 31.3 51.5 52z" fill="#ebebdf"></path><ellipse id="XMLID_1127_" cx="215" cy="256" fill="#ffdca4" rx="200" ry="251"></ellipse><ellipse id="XMLID_1126_" cx="215" cy="256" fill="#ffc96f" rx="160" ry="200"></ellipse><path id="XMLID_1125_" d="m96 256c0-101.8 60.8-185.8 139.5-198.4-6.7-1.1-13.6-1.6-20.5-1.6-88.4 0-160 89.5-160 200s71.6 200 160 200c6.9 0 13.8-.6 20.5-1.6-78.7-12.6-139.5-96.6-139.5-198.4z" fill="#ffb234"></path><path id="XMLID_1104_" d="m215 106-75 150 75 150 75-150z" fill="#ffdca4"></path><path id="XMLID_1134_" d="m185 286 30-180-75 150z" fill="#ebebdf"></path><path id="XMLID_1306_" d="m290 256-75 150-75-150 45 30z" fill="#ffb234"></path></g><g id="XMLID_2727_"><g id="XMLID_190_"><path id="XMLID_2586_" d="m215 512c-55 0-106.6-26.8-145.3-75.4-38.5-48.3-59.7-112.4-59.7-180.6s21.2-132.3 59.7-180.6c38.7-48.6 90.3-75.4 145.3-75.4s106.6 26.8 145.3 75.4c38.5 48.3 59.7 112.4 59.7 180.6s-21.2 132.3-59.7 180.6c-38.7 48.6-90.3 75.4-145.3 75.4zm0-502c-107.5 0-195 110.4-195 246s87.5 246 195 246 195-110.4 195-246-87.5-246-195-246z" fill="#272525"></path></g><g id="XMLID_489_"><path id="XMLID_2581_" d="m215 461c-44.3 0-85.9-21.5-117-60.5-31-38.6-48-89.9-48-144.5h10c0 107.5 69.5 195 155 195s155-87.5 155-195-69.5-195-155-195c-80 0-146.3 75.4-154.2 175.4l-10-.8c4-50.2 22.7-96.6 52.7-130.8 30.5-34.7 70.1-53.8 111.5-53.8 44.3 0 85.9 21.5 117 60.5 30.9 38.7 48 90 48 144.5s-17 105.9-48 144.5c-31.1 39-72.7 60.5-117 60.5z" fill="#272525"></path></g><g id="XMLID_188_"><path id="XMLID_2580_" d="m297 512h-82v-10h82c107.5 0 195-110.4 195-246s-87.5-246-195-246h-82v-10h82c55 0 106.6 26.8 145.3 75.4 38.5 48.3 59.7 112.4 59.7 180.6s-21.2 132.3-59.7 180.6c-38.7 48.6-90.3 75.4-145.3 75.4z" fill="#272525"></path></g><g id="XMLID_187_"><path id="XMLID_2579_" d="m415 251h82v10h-82z" fill="#272525"></path></g><g id="XMLID_186_"><path id="XMLID_2578_" d="m400 155h81v10h-81z" fill="#272525"></path></g><g id="XMLID_185_"><path id="XMLID_2577_" d="m364 84h81v10h-81z" fill="#272525"></path></g><g id="XMLID_184_"><path id="XMLID_2576_" d="m312 32h82v10h-82z" fill="#272525"></path></g><g id="XMLID_183_"><path id="XMLID_2575_" d="m400 347h81v10h-81z" fill="#272525"></path></g><g id="XMLID_182_"><path id="XMLID_2574_" d="m364 418h81v10h-81z" fill="#272525"></path></g><g id="XMLID_181_"><path id="XMLID_2573_" d="m312 470h82v10h-82z" fill="#272525"></path></g><g id="XMLID_247_"><path id="XMLID_2538_" d="m215 411c-1.9 0-3.6-1.1-4.5-2.8l-75-150c-.7-1.4-.7-3.1 0-4.5l75-150c.8-1.7 2.6-2.8 4.5-2.8s3.6 1.1 4.5 2.8l75 150c.7 1.4.7 3.1 0 4.5l-75 150c-.9 1.7-2.6 2.8-4.5 2.8zm-69.4-155 69.4 138.8 69.4-138.8-69.4-138.8z" fill="#272525"></path></g><g id="XMLID_262_"><path id="XMLID_2537_" d="m185 291c-1 0-1.9-.3-2.8-.8l-45-30 5.5-8.3 43.1 28.7 82.8-23.7 2.7 9.6-85 24.3c-.4.1-.8.2-1.3.2z" fill="#272525"></path></g></g></g></svg>